<svg id="Слой_1" data-name="Слой 1" xmlns="http://www.w3.org/2000/svg" viewBox="0 0 101 101"><title>log_Монтажная область 15</title><path d="M91.61,74C79.74,70.51,77,56.61,76.41,52.43a1.48,1.48,0,0,0,0-.18A98.21,98.21,0,0,0,82,17.3a3.53,3.53,0,0,0-5.34-3.07A100.32,100.32,0,0,0,61.77,24.44,30.81,30.81,0,0,0,50.7,18.13C21.94,9.08,10,33.73,9.86,34a1.5,1.5,0,0,0,2,2c2-.92,7.93-2.87,11.73-.88,2,1,3.22,3,3.74,6a13.82,13.82,0,0,1-2.67,10.37C22,55.25,16.23,60.13,4.27,62a1.5,1.5,0,0,0,.23,3l.24,0c13-2.05,19.33-7.52,22.35-11.74a16.79,16.79,0,0,0,3.19-12.63c-.68-3.94-2.46-6.69-5.3-8.18-3.32-1.74-7.37-1.31-10.33-.57A32.68,32.68,0,0,1,21.21,25c7.92-6.13,17.54-7.47,28.59-4a27.68,27.68,0,0,1,9.66,5.42A82.93,82.93,0,0,0,42.12,47.2C33.88,61.54,28.24,84.35,28,85.31a1.5,1.5,0,0,0,.29,1.29,1.54,1.54,0,0,0,1.2.56l9-.16,4.44,7.81a1.5,1.5,0,0,0,1.09.74l.21,0a1.5,1.5,0,0,0,1-.42C46,94.47,62.8,78.1,71,63.79c1.23-2.15,2.33-4.32,3.3-6.5C76,63.77,80.19,73.77,90.76,76.9A1.5,1.5,0,1,0,91.61,74ZM68.41,62.3C61.74,73.91,48.78,87.37,44.54,91.64l-3.91-6.88a1.5,1.5,0,0,0-1.3-.76h0l-7.9.14C33,78.31,38,60.33,44.72,48.69,54.85,31,71.48,20.55,78.16,16.86a.55.55,0,0,1,.89.51C79.22,25,78.55,44.64,68.41,62.3Z"/> <path d="M74.25,25.2a1.5,1.5,0,0,0-2,.55L42.63,77.06a1.5,1.5,0,0,0,2.6,1.5L74.8,27.25A1.5,1.5,0,0,0,74.25,25.2Z"/></svg>